<?xml version="1.0" encoding="utf-8"?>
<!-- Generator: Adobe Illustrator 21.0.0, SVG Export Plug-In . SVG Version: 6.00 Build 0)  -->
<!DOCTYPE svg PUBLIC "-//W3C//DTD SVG 1.1//EN" "http://www.w3.org/Graphics/SVG/1.1/DTD/svg11.dtd">
<svg version="1.1" id="Layer_1" xmlns="http://www.w3.org/2000/svg" xmlns:xlink="http://www.w3.org/1999/xlink" x="0px" y="0px"
	 viewBox="0 0 100 100" style="enable-background:new 0 0 100 100;" xml:space="preserve">
<style type="text/css">
	.st0{fill:#00AEEF;}
</style>
<path class="st0" d="M97,90.2h-1.8v-51c0-0.8-0.5-1.3-1.3-1.3H73.6c-0.8,0-1.3,0.5-1.3,1.3v6.3h-3.9v-37c0-0.8-0.5-1.3-1.3-1.3H46.9
	c-0.8,0-1.3,0.5-1.3,1.3V50h-0.8c-0.4-1.6-1.4-3-2.5-3.6c-0.3-2.1-1.6-4-3.3-4h-0.8v-5.3c0-0.8-0.5-1.3-1.3-1.3
	c-0.8,0-1.3,0.5-1.3,1.3v5.3h-0.8c-1.5,0-3,1.9-3.3,4c-1.1,0.8-2.3,2.1-2.5,3.6h-0.8V34.8c0-0.8-0.5-1.3-1.3-1.3H6.8
	c-0.8,0-1.3,0.5-1.3,1.3v55.4H3c-0.8,0-1.3,0.5-1.3,1.3s0.5,1.3,1.3,1.3H97c0.8,0,1.3-0.5,1.3-1.3S97.7,90.2,97,90.2z M92.8,40.5
	v49.7H74.9V40.5H92.8z M72.5,90.2H54.9L54.8,48h17.7V90.2z M48.2,9.8h17.9v35.7H53.7c-0.4,0-0.6,0.1-0.9,0.4
	c-0.3,0.3-0.4,0.5-0.4,0.9l0.1,43.5h-4.4V9.8z M38.9,44.9c0.1,0,0.4,0.4,0.6,0.9h-5c0.3-0.5,0.5-0.8,0.5-0.9H38.9z M33.8,48.2h6.5
	c0.5,0,1.5,0.8,1.9,1.9H31.9C32.4,48.9,33.4,48.2,33.8,48.2z M45.7,52.5v37.7H28.8l-0.1-37.7H45.7z M8.1,36.1H26v54.1H8.1V36.1z"/>
<path class="st0" d="M12.1,39.5c-0.8,0-1.3,0.5-1.3,1.3v3.1c0,0.8,0.5,1.3,1.3,1.3c0.8,0,1.3-0.5,1.3-1.3v-3.1
	C13.4,40,12.9,39.5,12.1,39.5z"/>
<path class="st0" d="M17.2,39.5c-0.8,0-1.3,0.5-1.3,1.3v3.1c0,0.8,0.5,1.3,1.3,1.3c0.8,0,1.3-0.5,1.3-1.3v-3.1
	C18.5,40,17.9,39.5,17.2,39.5z"/>
<path class="st0" d="M22.2,39.5c-0.8,0-1.3,0.5-1.3,1.3v3.1c0,0.8,0.5,1.3,1.3,1.3c0.8,0,1.3-0.5,1.3-1.3v-3.1
	C23.5,40,23,39.5,22.2,39.5z"/>
<path class="st0" d="M12.1,47.5c-0.8,0-1.3,0.5-1.3,1.3v3.1c0,0.8,0.5,1.3,1.3,1.3c0.8,0,1.3-0.5,1.3-1.3v-3.1
	C13.4,48,12.9,47.5,12.1,47.5z"/>
<path class="st0" d="M17.2,47.5c-0.8,0-1.3,0.5-1.3,1.3v3.1c0,0.8,0.5,1.3,1.3,1.3c0.8,0,1.3-0.5,1.3-1.3v-3.1
	C18.5,48,17.9,47.5,17.2,47.5z"/>
<path class="st0" d="M22.2,47.5c-0.8,0-1.3,0.5-1.3,1.3v3.1c0,0.8,0.5,1.3,1.3,1.3c0.8,0,1.3-0.5,1.3-1.3v-3.1
	C23.5,48,23,47.5,22.2,47.5z"/>
<path class="st0" d="M12.1,55.5c-0.8,0-1.3,0.5-1.3,1.3v3.1c0,0.8,0.5,1.3,1.3,1.3c0.8,0,1.3-0.5,1.3-1.3v-3.1
	C13.4,56.1,12.9,55.5,12.1,55.5z"/>
<path class="st0" d="M17.2,55.5c-0.8,0-1.3,0.5-1.3,1.3v3.1c0,0.8,0.5,1.3,1.3,1.3c0.8,0,1.3-0.5,1.3-1.3v-3.1
	C18.5,56.1,17.9,55.5,17.2,55.5z"/>
<path class="st0" d="M22.2,55.5c-0.8,0-1.3,0.5-1.3,1.3v3.1c0,0.8,0.5,1.3,1.3,1.3c0.8,0,1.3-0.5,1.3-1.3v-3.1
	C23.5,56.1,23,55.5,22.2,55.5z"/>
<path class="st0" d="M12.1,63.5c-0.8,0-1.3,0.5-1.3,1.3v3.1c0,0.8,0.5,1.3,1.3,1.3c0.8,0,1.3-0.5,1.3-1.3v-3.1
	C13.4,64.2,12.9,63.5,12.1,63.5z"/>
<path class="st0" d="M17.2,63.5c-0.8,0-1.3,0.5-1.3,1.3v3.1c0,0.8,0.5,1.3,1.3,1.3c0.8,0,1.3-0.5,1.3-1.3v-3.1
	C18.5,64.2,17.9,63.5,17.2,63.5z"/>
<path class="st0" d="M22.2,63.5c-0.8,0-1.3,0.5-1.3,1.3v3.1c0,0.8,0.5,1.3,1.3,1.3c0.8,0,1.3-0.5,1.3-1.3v-3.1
	C23.5,64.2,23,63.5,22.2,63.5z"/>
<path class="st0" d="M12.1,71.6c-0.8,0-1.3,0.5-1.3,1.3v3.1c0,0.8,0.5,1.3,1.3,1.3c0.8,0,1.3-0.5,1.3-1.3v-3.1
	C13.4,72.2,12.9,71.6,12.1,71.6z"/>
<path class="st0" d="M17.2,71.6c-0.8,0-1.3,0.5-1.3,1.3v3.1c0,0.8,0.5,1.3,1.3,1.3c0.8,0,1.3-0.5,1.3-1.3v-3.1
	C18.5,72.2,17.9,71.6,17.2,71.6z"/>
<path class="st0" d="M22.2,71.6c-0.8,0-1.3,0.5-1.3,1.3v3.1c0,0.8,0.5,1.3,1.3,1.3c0.8,0,1.3-0.5,1.3-1.3v-3.1
	C23.5,72.2,23,71.6,22.2,71.6z"/>
<path class="st0" d="M12.1,79.6c-0.8,0-1.3,0.5-1.3,1.3V84c0,0.8,0.5,1.3,1.3,1.3c0.8,0,1.3-0.5,1.3-1.3v-3.1
	C13.4,80.2,12.9,79.6,12.1,79.6z"/>
<path class="st0" d="M17.2,79.6c-0.8,0-1.3,0.5-1.3,1.3V84c0,0.8,0.5,1.3,1.3,1.3c0.8,0,1.3-0.5,1.3-1.3v-3.1
	C18.5,80.2,17.9,79.6,17.2,79.6z"/>
<path class="st0" d="M22.2,79.6c-0.8,0-1.3,0.5-1.3,1.3V84c0,0.8,0.5,1.3,1.3,1.3c0.8,0,1.3-0.5,1.3-1.3v-3.1
	C23.5,80.2,23,79.6,22.2,79.6z"/>
<path class="st0" d="M32,61.2c0.8,0,1.3-0.5,1.3-1.3v-3.1c0-0.8-0.5-1.3-1.3-1.3c-0.8,0-1.3,0.5-1.3,1.3v3.1
	C30.8,60.5,31.3,61.2,32,61.2z"/>
<path class="st0" d="M37,61.2c0.8,0,1.3-0.5,1.3-1.3v-3.1c0-0.8-0.5-1.3-1.3-1.3c-0.8,0-1.3,0.5-1.3,1.3v3.1
	C35.8,60.5,36.3,61.2,37,61.2z"/>
<path class="st0" d="M42,61.2c0.8,0,1.3-0.5,1.3-1.3v-3.1c0-0.8-0.5-1.3-1.3-1.3c-0.8,0-1.3,0.5-1.3,1.3v3.1
	C40.8,60.5,41.4,61.2,42,61.2z"/>
<path class="st0" d="M32,69.2c0.8,0,1.3-0.5,1.3-1.3v-3.1c0-0.8-0.5-1.3-1.3-1.3c-0.8,0-1.3,0.5-1.3,1.3v3.1
	C30.8,68.5,31.3,69.2,32,69.2z"/>
<path class="st0" d="M37,69.2c0.8,0,1.3-0.5,1.3-1.3v-3.1c0-0.8-0.5-1.3-1.3-1.3c-0.8,0-1.3,0.5-1.3,1.3v3.1
	C35.8,68.5,36.3,69.2,37,69.2z"/>
<path class="st0" d="M42,69.2c0.8,0,1.3-0.5,1.3-1.3v-3.1c0-0.8-0.5-1.3-1.3-1.3c-0.8,0-1.3,0.5-1.3,1.3v3.1
	C40.8,68.5,41.4,69.2,42,69.2z"/>
<path class="st0" d="M32,77.2c0.8,0,1.3-0.5,1.3-1.3v-3.1c0-0.8-0.5-1.3-1.3-1.3c-0.8,0-1.3,0.5-1.3,1.3v3.1
	C30.8,76.6,31.3,77.2,32,77.2z"/>
<path class="st0" d="M37,77.2c0.8,0,1.3-0.5,1.3-1.3v-3.1c0-0.8-0.5-1.3-1.3-1.3c-0.8,0-1.3,0.5-1.3,1.3v3.1
	C35.8,76.6,36.3,77.2,37,77.2z"/>
<path class="st0" d="M42,77.2c0.8,0,1.3-0.5,1.3-1.3v-3.1c0-0.8-0.5-1.3-1.3-1.3c-0.8,0-1.3,0.5-1.3,1.3v3.1
	C40.8,76.6,41.4,77.2,42,77.2z"/>
<path class="st0" d="M32,85.2c0.8,0,1.3-0.5,1.3-1.3v-3.1c0-0.8-0.5-1.3-1.3-1.3c-0.8,0-1.3,0.5-1.3,1.3V84
	C30.8,84.7,31.3,85.2,32,85.2z"/>
<path class="st0" d="M37,85.2c0.8,0,1.3-0.5,1.3-1.3v-3.1c0-0.8-0.5-1.3-1.3-1.3c-0.8,0-1.3,0.5-1.3,1.3V84
	C35.8,84.7,36.3,85.2,37,85.2z"/>
<path class="st0" d="M42,85.2c0.8,0,1.3-0.5,1.3-1.3v-3.1c0-0.8-0.5-1.3-1.3-1.3c-0.8,0-1.3,0.5-1.3,1.3V84
	C40.8,84.7,41.4,85.2,42,85.2z"/>
<path class="st0" d="M79,70.4c0.8,0,1.3-0.5,1.3-1.3v-9c0-0.8-0.5-1.3-1.3-1.3s-1.3,0.5-1.3,1.3v9C77.8,69.9,78.4,70.4,79,70.4z"/>
<path class="st0" d="M83.9,70.4c0.8,0,1.3-0.5,1.3-1.3v-9c0-0.8-0.5-1.3-1.3-1.3s-1.3,0.5-1.3,1.3v9C82.6,69.9,83.1,70.4,83.9,70.4z
	"/>
<path class="st0" d="M88.8,70.4c0.8,0,1.3-0.5,1.3-1.3v-9c0-0.8-0.5-1.3-1.3-1.3s-1.3,0.5-1.3,1.3v9C87.5,69.9,88,70.4,88.8,70.4z"
	/>
<path class="st0" d="M79,55.8c0.8,0,1.3-0.5,1.3-1.3v-9c0-0.8-0.5-1.3-1.3-1.3s-1.3,0.5-1.3,1.3v9C77.8,55.3,78.4,55.8,79,55.8z"/>
<path class="st0" d="M83.9,55.8c0.8,0,1.3-0.5,1.3-1.3v-9c0-0.8-0.5-1.3-1.3-1.3s-1.3,0.5-1.3,1.3v9C82.6,55.3,83.1,55.8,83.9,55.8z
	"/>
<path class="st0" d="M88.8,55.8c0.8,0,1.3-0.5,1.3-1.3v-9c0-0.8-0.5-1.3-1.3-1.3s-1.3,0.5-1.3,1.3v9C87.5,55.3,88,55.8,88.8,55.8z"
	/>
<path class="st0" d="M79,84.7c0.8,0,1.3-0.5,1.3-1.3v-9c0-0.8-0.5-1.3-1.3-1.3s-1.3,0.5-1.3,1.3v9C77.8,84.2,78.4,84.7,79,84.7z"/>
<path class="st0" d="M83.9,84.7c0.8,0,1.3-0.5,1.3-1.3v-9c0-0.8-0.5-1.3-1.3-1.3s-1.3,0.5-1.3,1.3v9C82.6,84.2,83.1,84.7,83.9,84.7z
	"/>
<path class="st0" d="M88.8,84.7c0.8,0,1.3-0.5,1.3-1.3v-9c0-0.8-0.5-1.3-1.3-1.3s-1.3,0.5-1.3,1.3v9C87.5,84.2,88,84.7,88.8,84.7z"
	/>
<path class="st0" d="M52.2,39.7c0.8,0,1.3-0.5,1.3-1.3v-9c0-0.8-0.5-1.3-1.3-1.3c-0.8,0-1.3,0.5-1.3,1.3v9
	C50.9,39.1,51.6,39.7,52.2,39.7z"/>
<path class="st0" d="M57.1,39.7c0.8,0,1.3-0.5,1.3-1.3v-9c0-0.8-0.5-1.3-1.3-1.3c-0.8,0-1.3,0.5-1.3,1.3v9
	C55.8,39.1,56.3,39.7,57.1,39.7z"/>
<path class="st0" d="M62,39.7c0.8,0,1.3-0.5,1.3-1.3v-9c0-0.8-0.5-1.3-1.3-1.3c-0.8,0-1.3,0.5-1.3,1.3v9
	C60.7,39.1,61.2,39.7,62,39.7z"/>
<path class="st0" d="M52.2,25.1c0.8,0,1.3-0.5,1.3-1.3v-9c0-0.8-0.5-1.3-1.3-1.3c-0.8,0-1.3,0.5-1.3,1.3v9
	C50.9,24.6,51.6,25.1,52.2,25.1z"/>
<path class="st0" d="M57.1,25.1c0.8,0,1.3-0.5,1.3-1.3v-9c0-0.8-0.5-1.3-1.3-1.3c-0.8,0-1.3,0.5-1.3,1.3v9
	C55.8,24.6,56.3,25.1,57.1,25.1z"/>
<path class="st0" d="M62,25.1c0.8,0,1.3-0.5,1.3-1.3v-9c0-0.8-0.5-1.3-1.3-1.3c-0.8,0-1.3,0.5-1.3,1.3v9
	C60.7,24.6,61.2,25.1,62,25.1z"/>
<path class="st0" d="M58.2,61.2c0.8,0,1.3-0.5,1.3-1.3v-3.1c0-0.8-0.5-1.3-1.3-1.3c-0.8,0-1.3,0.5-1.3,1.3v3.1
	C57,60.5,57.6,61.2,58.2,61.2z"/>
<path class="st0" d="M63.3,61.2c0.8,0,1.3-0.5,1.3-1.3v-3.1c0-0.8-0.5-1.3-1.3-1.3s-1.3,0.5-1.3,1.3v3.1
	C62.1,60.5,62.6,61.2,63.3,61.2z"/>
<path class="st0" d="M68.4,61.2c0.8,0,1.3-0.5,1.3-1.3v-3.1c0-0.8-0.5-1.3-1.3-1.3c-0.8,0-1.3,0.5-1.3,1.3v3.1
	C67.1,60.5,67.7,61.2,68.4,61.2z"/>
<path class="st0" d="M58.2,69.2c0.8,0,1.3-0.5,1.3-1.3v-3.1c0-0.8-0.5-1.3-1.3-1.3c-0.8,0-1.3,0.5-1.3,1.3v3.1
	C57,68.5,57.6,69.2,58.2,69.2z"/>
<path class="st0" d="M63.3,69.2c0.8,0,1.3-0.5,1.3-1.3v-3.1c0-0.8-0.5-1.3-1.3-1.3s-1.3,0.5-1.3,1.3v3.1
	C62.1,68.5,62.6,69.2,63.3,69.2z"/>
<path class="st0" d="M68.4,69.2c0.8,0,1.3-0.5,1.3-1.3v-3.1c0-0.8-0.5-1.3-1.3-1.3c-0.8,0-1.3,0.5-1.3,1.3v3.1
	C67.1,68.5,67.7,69.2,68.4,69.2z"/>
<path class="st0" d="M58.2,77.2c0.8,0,1.3-0.5,1.3-1.3v-3.1c0-0.8-0.5-1.3-1.3-1.3c-0.8,0-1.3,0.5-1.3,1.3v3.1
	C57,76.6,57.6,77.2,58.2,77.2z"/>
<path class="st0" d="M63.3,77.2c0.8,0,1.3-0.5,1.3-1.3v-3.1c0-0.8-0.5-1.3-1.3-1.3s-1.3,0.5-1.3,1.3v3.1
	C62.1,76.6,62.6,77.2,63.3,77.2z"/>
<path class="st0" d="M68.4,77.2c0.8,0,1.3-0.5,1.3-1.3v-3.1c0-0.8-0.5-1.3-1.3-1.3c-0.8,0-1.3,0.5-1.3,1.3v3.1
	C67.1,76.6,67.7,77.2,68.4,77.2z"/>
<path class="st0" d="M58.2,85.2c0.8,0,1.3-0.5,1.3-1.3v-3.1c0-0.8-0.5-1.3-1.3-1.3c-0.8,0-1.3,0.5-1.3,1.3V84
	C57,84.7,57.6,85.2,58.2,85.2z"/>
<path class="st0" d="M63.3,85.2c0.8,0,1.3-0.5,1.3-1.3v-3.1c0-0.8-0.5-1.3-1.3-1.3s-1.3,0.5-1.3,1.3V84
	C62.1,84.7,62.6,85.2,63.3,85.2z"/>
<path class="st0" d="M68.4,85.2c0.8,0,1.3-0.5,1.3-1.3v-3.1c0-0.8-0.5-1.3-1.3-1.3c-0.8,0-1.3,0.5-1.3,1.3V84
	C67.1,84.7,67.7,85.2,68.4,85.2z"/>
</svg>
