<?xml version="1.0" encoding="utf-8"?>
<!-- Generator: Adobe Illustrator 21.0.0, SVG Export Plug-In . SVG Version: 6.00 Build 0)  -->
<!DOCTYPE svg PUBLIC "-//W3C//DTD SVG 1.1//EN" "http://www.w3.org/Graphics/SVG/1.1/DTD/svg11.dtd">
<svg version="1.1" id="Layer_1" xmlns="http://www.w3.org/2000/svg" xmlns:xlink="http://www.w3.org/1999/xlink" x="0px" y="0px"
	 viewBox="0 0 100 100" style="enable-background:new 0 0 100 100;" xml:space="preserve">
<style type="text/css">
	.st0{fill:#00AEEF;}
</style>
<g>
	<g>
		<path class="st0" d="M71.6,96.5c-0.6,0-1.2-0.1-1.9-0.3c-0.9-0.3-2.2-0.6-3.8-0.9c-4.2-0.9-9.1-1.9-10.9-4.4
			c-2.1-3.2-3.3-5.7-3.2-8.9c0-0.1,0-0.2-0.9-0.9c-1.6-1.1-4-2.9-5.7-8.1c-2.1-6.8-6-7.9-6.2-7.9c-0.1,0-0.1,0-0.2-0.1
			c-0.7-0.2-2.8-1-4.2-1C34.2,63.9,34,64,34,64c-0.2,0.2-0.7,1.2-0.9,1.9c-0.8,2-1.9,4.7-4.7,5c-0.1,0-0.3,0-0.4,0
			c-3.4,0-13.1-4-13.3-8v-0.6c-0.1-2.3-0.2-4.8-3.3-7.6c-2.1-1.9-3.8-3.7-5.1-5c-1.2-1.2-2.2-2.3-3-3c-0.7-0.6-1.2-1.2-1.7-2
			c-0.4-0.9-0.4-2,0.1-2.9c0.6-0.9,1.6-1.4,2.6-1.4H25V6.5c0-1.7,1.3-3,3-3h20.1c1.7,0,3,1.2,3,2.9l0.6,14.2c0.2,0,0.6,0.1,1,0
			c2.7-0.4,4.4,1.4,5.2,3.1c0.2,0.2,0.8,0.2,1.6-0.1c0.8-0.3,1.6-0.6,2.2-0.6c1.7,0,2.8,0.9,3.3,1.4l0.1,0.1c0.7,0.1,2,0.3,3.2,0.3
			c0.9,0,1.3-0.1,1.7-0.2c0.7-0.2,1.2-0.3,1.9-0.3c1.3,0,2.2,0.6,2.9,0.9c0.1,0,0.2,0.1,0.2,0.1s0.1,0,0.3,0c1.1,0,3.3-0.4,4.4-1.6
			c0.7-0.6,1.4-0.9,2.2-0.9c2,0,3.9,1.9,4.8,3c1.1,0.4,2.3,0.8,3,0.8c1.7,0,2.9,1.2,3,2.8c0.1,1.8,0.3,5.1,0.6,9.8
			c2,1.3,2.8,2.7,2.7,4c0,0.6,0.6,2.4,1,3.1c0.4,0.1,0.9,0.4,1.2,1.2c0.6,1.3,0.8,4.8-0.7,6.5c-0.2,0.3-0.2,1.7,0,2.7
			c0.7,1.7,1.2,4.8-1.3,6.1c-1,0.6-2.2,0.8-3.6,1c-1.6,0.2-3.4,0.6-3.8,1.3c-1.2,2.7-8.3,7.2-12.5,9.7c-0.4,0.4-4.6,4.3-4,8.1
			c0.7,4.7,2.6,8.7,2.7,8.7c0.1,0.2,0.2,0.4,0.2,0.8C75.3,94.6,74,96.5,71.6,96.5z M40,61.7c1,0.3,5.9,2.1,8.5,10.1
			c1.3,4.2,3.1,5.5,4.4,6.5c1.1,0.8,2.4,1.8,2.3,3.8c-0.1,2.3,0.9,4.2,2.7,6.9c1,1.4,5.7,2.4,8.8,3.1c1.7,0.3,3.1,0.7,4.1,1
			c0.8,0.2,1,0.1,1,0.1s0-0.1,0.1-0.1c-0.6-1.3-2.1-4.9-2.7-9.2c-0.8-5.3,4.1-10.2,5.1-11.1c0.1-0.1,0.3-0.2,0.4-0.3
			c5.7-3.4,10.7-7.1,11.2-8.2c1.2-2.4,4-2.9,6.3-3.2c0.9-0.1,2-0.3,2.4-0.6c0.4-0.2,0.1-1.6-0.1-2c0-0.1-0.1-0.1-0.1-0.2
			c-0.2-0.7-1-4,0.7-5.9c0.2-0.3,0.3-1.8,0.2-2.6c-0.2-0.1-0.3-0.2-0.6-0.4c-1-1.1-2-4.1-2-5.7c-0.1-0.2-0.6-0.7-1.3-1.2
			c-0.8-0.6-1.2-1.3-1.3-2.3c-0.2-5.5-0.4-8.2-0.4-9.6c-1.6-0.1-3.2-0.7-4.1-1.1c-0.4-0.2-0.9-0.4-1.1-0.9c-1-1.2-1.9-1.8-2.2-1.8
			c-1.8,1.7-4.7,2.4-6.7,2.4c-0.8,0-1.3-0.1-1.8-0.3c-0.2-0.1-0.3-0.2-0.6-0.3c-0.8-0.4-1.1-0.6-1.9-0.3c-0.8,0.2-1.7,0.4-2.8,0.4
			c-1.8,0-3.4-0.3-4.1-0.4c-0.7-0.1-1.1-0.6-1.4-0.8c-0.8-0.7-1.1-0.8-2-0.4c-2.1,1-4.3,0.7-5.6-0.8c-0.2-0.2-0.3-0.4-0.4-0.8
			c-0.1-0.2-0.7-1.4-1.7-1.2c-1.6,0.2-2.8,0-3.8-0.7c-0.7-0.6-1.1-1.3-1.1-2.2L47.8,6.8H28.6v33.8c0,1.7-1.3,3-3,3H5
			c0.1,0.1,0.2,0.2,0.3,0.3c1,0.8,2.1,2,3.3,3.2c1.3,1.4,2.9,3.1,4.9,4.9c4.1,3.7,4.3,7.3,4.4,9.9v0.6c0.4,1.3,7.2,4.8,10,4.8h0.1
			c0.8-0.1,1.4-1.7,1.9-2.9c0.6-1.3,1-2.6,1.9-3.2c0.7-0.6,1.6-0.8,2.7-0.8C36.8,60.5,39.5,61.5,40,61.7z"/>
	</g>
</g>
<polygon class="st0" points="75.4,29.6 78,37.4 86.1,37.4 79.5,42.2 82.1,50 75.4,45.2 68.8,50 71.3,42.2 64.7,37.4 72.9,37.4 "/>
</svg>
