<?xml version="1.0" encoding="utf-8"?>
<!-- Generator: Adobe Illustrator 21.0.0, SVG Export Plug-In . SVG Version: 6.00 Build 0)  -->
<!DOCTYPE svg PUBLIC "-//W3C//DTD SVG 1.1//EN" "http://www.w3.org/Graphics/SVG/1.1/DTD/svg11.dtd">
<svg version="1.1" id="Layer_1" xmlns="http://www.w3.org/2000/svg" xmlns:xlink="http://www.w3.org/1999/xlink" x="0px" y="0px"
	 viewBox="0 0 280 280" style="enable-background:new 0 0 280 280;" xml:space="preserve">
<style type="text/css">
	.st0{opacity:0.65;}
</style>
<g class="st0">
	<path d="M271.5,242.1l-61-61c-5.9-5.9-14.4-7.6-21.9-5.1l-15.2-15.2c31-37.7,28.9-93.5-6.3-128.7c-37.5-37.5-98.2-37.5-135.7,0
		c-37.5,37.5-37.5,98.2,0,135.7c35.2,35.2,91,37.3,128.7,6.3l15.2,15.2c-2.5,7.4-0.8,16,5.1,21.9l61,61c8.3,8.3,21.8,8.3,30.1,0
		C279.8,263.9,279.8,250.4,271.5,242.1z M52.4,146.8c-25.9-25.9-25.9-67.9,0-93.8s67.9-25.9,93.8,0s25.9,67.9,0,93.8
		S78.3,172.7,52.4,146.8z"/>
</g>
</svg>
