<?xml version="1.0" encoding="utf-8"?>
<!-- Generator: Adobe Illustrator 21.0.0, SVG Export Plug-In . SVG Version: 6.00 Build 0)  -->
<!DOCTYPE svg PUBLIC "-//W3C//DTD SVG 1.1//EN" "http://www.w3.org/Graphics/SVG/1.1/DTD/svg11.dtd">
<svg version="1.1" id="Layer_1" xmlns="http://www.w3.org/2000/svg" xmlns:xlink="http://www.w3.org/1999/xlink" x="0px" y="0px"
	 viewBox="0 0 100 100" style="enable-background:new 0 0 100 100;" xml:space="preserve">
<style type="text/css">
	.st0{fill:#00AEEF;}
</style>
<path class="st0" d="M68,75.8V59.2h-2.8V51H63v-4.1h-3.3v-3.7h-2.5v-1.8c0-0.6-0.4-1-1-1h-0.4v-3.8h-1.1v-3.2h-0.9V19.7H53v-0.9
	c0-0.2,0-0.3-0.1-0.5L52,16.8c-0.2-0.3-0.5-0.5-0.9-0.5H51V1c0-0.6-0.4-1-1-1c-0.6,0-1,0.4-1,1v15.2h-0.1c-0.4,0-0.7,0.2-0.9,0.5
	l-0.9,1.6C47,18.5,47,18.6,47,18.8v0.9h-0.8v13.9h-0.9v3.2h-1.1v3.8h-0.4c-0.6,0-1,0.4-1,1v1.8h-2.5v3.7H37V51h-2.2v8.2H32v16.6
	h-2.2V100h40.4V75.8H68z M66,75.8h-1.4V64h-2v11.8h-1V64h-2v11.8h-1.4V61.2H66C66,61.2,66,75.8,66,75.8z M53.8,38.7v1.8h-2.9V21.7
	h0.9v13.9h0.9v3.2H53.8z M49,19.1l0.5-0.8h1.1l0.5,0.8v0.6h-2V19.1z M46.2,38.7h1.1v-3.2h0.9V21.7h0.7v18.8h-2.7V38.7z M44.8,42.5
	h10.4v0.8H44.8V42.5z M42.3,45.3h15.4v1.7H42.3V45.3z M39,48.9h22V51H39V48.9z M34,61.2h7.8v14.6h-1.4V64h-2v11.8h-1V64h-2v11.8H34
	V61.2z M43,98h-1.6V79h-2v19h-1V79h-2v19h-1V79h-2v19h-1.6V77.8H32h11V98z M53.9,98V56c0-0.6-0.4-1-1-1c-0.6,0-1,0.4-1,1v42h-1V56
	c0-0.6-0.4-1-1-1c-0.6,0-1,0.4-1,1v42h-1V56c0-0.6-0.4-1-1-1c-0.6,0-1,0.4-1,1v42h-1V75.8h-1.2V59.2h-1.3v-2.7h-2v2.7h-3.7V53h26.4
	v6.2h-3.9v-2.7h-2v2.7h-1.1v16.6H55V98H53.9z M68.2,98h-1.6V79h-2v19h-1V79h-2v19h-1V79h-2v19H57V77.8h11h0.2V98z"/>
</svg>
