<?xml version="1.0" encoding="utf-8"?>
<!-- Generator: Adobe Illustrator 21.0.0, SVG Export Plug-In . SVG Version: 6.00 Build 0)  -->
<!DOCTYPE svg PUBLIC "-//W3C//DTD SVG 1.1//EN" "http://www.w3.org/Graphics/SVG/1.1/DTD/svg11.dtd">
<svg version="1.1" id="Layer_1" xmlns="http://www.w3.org/2000/svg" xmlns:xlink="http://www.w3.org/1999/xlink" x="0px" y="0px"
	 viewBox="0 0 100 100" style="enable-background:new 0 0 100 100;" xml:space="preserve">
<style type="text/css">
	.st0{fill:#00AEEF;}
</style>
<g>
	<path class="st0" d="M49.9,70.5c-0.7,0-1.3,0.6-1.3,1.3v27.8h2.6V71.8C51.2,71.1,50.6,70.5,49.9,70.5z"/>
	<path class="st0" d="M46.1,70.5c-0.7,0-1.3,0.6-1.3,1.3v27.8h2.6V71.8C47.4,71.1,46.8,70.5,46.1,70.5z"/>
	<path class="st0" d="M53.7,70.5c-0.7,0-1.3,0.6-1.3,1.3v27.8H55V71.8C55,71.1,54.4,70.5,53.7,70.5z"/>
	<path class="st0" d="M43.6,99.6V97h-1.5V75.9h-1.7v-3.5h-2.6v3.5h-4.7V68h33.7v7.9h-5v-3.5h-2.6v3.5h-1.4V97h-1.5v2.5h19.3V97H73
		V75.9h-3.6V65.5h-2.9v-5.2h-4.2v-4.7h-3.2v-2.3c0-0.7-0.6-1.3-1.3-1.3h-0.5v-4.8h-1.4v-4.1h-1.2V25.5h-1v-1.1
		c0-0.2-0.1-0.4-0.2-0.6l-1.1-2c-0.2-0.4-0.7-0.7-1.1-0.7h-0.2V1.7c0-0.7-0.6-1.3-1.3-1.3c-0.7,0-1.3,0.6-1.3,1.3v19.4h-0.2
		c-0.5,0-0.9,0.2-1.1,0.7l-1.1,2c-0.1,0.2-0.2,0.4-0.2,0.6v1.1h-1v17.7h-1.2v4.1h-1.4V52h-0.5c-0.7,0-1.3,0.6-1.3,1.3v2.3h-3.2v4.7
		h-4.2v5.2h-2.9v10.4H27V97h-2.8v2.5H43.6z M70.4,78.4V97h-1.8V82h-2.6v15h-1.2V82h-2.6v15h-1.8V78.4H70.4z M52.3,28.1v17.7h1.2v4.1
		h1.4V52h-3.7v-24H52.3z M48.7,24.7l0.6-1.1h1.4l0.6,1.1v0.8h-2.6V24.7z M45.1,49.8h1.4v-4.1h1.2V28.1h0.9v24h-3.5V49.8z M43.3,54.6
		h13.3v1H43.3V54.6z M40.2,58.2h19.6v2.1H40.2V58.2z M36,62.8h28v2.7H36V62.8z M29.6,78.4h9.9V97h-1.8V82h-2.6v15h-1.2V82h-2.6v15
		h-1.8V78.4z"/>
</g>
</svg>
