<?xml version="1.0" encoding="utf-8"?>
<!-- Generator: Adobe Illustrator 21.0.0, SVG Export Plug-In . SVG Version: 6.00 Build 0)  -->
<!DOCTYPE svg PUBLIC "-//W3C//DTD SVG 1.1//EN" "http://www.w3.org/Graphics/SVG/1.1/DTD/svg11.dtd">
<svg version="1.1" id="Layer_1" xmlns="http://www.w3.org/2000/svg" xmlns:xlink="http://www.w3.org/1999/xlink" x="0px" y="0px"
	 viewBox="0 0 100 100" style="enable-background:new 0 0 100 100;" xml:space="preserve">
<style type="text/css">
	.st0{fill:none;}
	.st1{fill:#00AEEF;}
</style>
<g>
	<path class="st0" d="M67.8,68.3c0,0.9-0.7,1.6-1.6,1.6H60c-0.9,0-1.6-0.7-1.6-1.6V50.6c0-0.2,0.1-0.5,0.2-0.7l2.9-6H48l2.8,6
		c0.1,0.2,0.2,0.5,0.2,0.7l-0.2,15.5c0,0.9-0.7,1.6-1.6,1.6h-5.3c-0.9,0-1.6-0.7-1.6-1.6v-4h-7v11.9c0,0.9-0.7,1.6-1.6,1.6h-6.2
		c-0.9,0-1.6-0.7-1.6-1.6v-3H20v4.3l4.1,4.1c0.3,0.3,0.5,0.7,0.5,1.2v15.2h14.3c0.1-3.5,0.8-11.6,4.7-15.6c1.5-1.6,3.4-2.3,5.5-2.3
		c2.1,0,3.9,0.8,5.5,2.3c3.8,3.9,4.5,12.1,4.6,15.6h12.1V79c0-0.4,0.2-0.8,0.4-1.1l3.3-3.5v-9.2h-7.1V68.3z M36.5,88.1
		c0,0.9-0.7,1.6-1.6,1.6c-0.9,0-1.6-0.7-1.6-1.6v-7c0-0.9,0.7-1.6,1.6-1.6c0.9,0,1.6,0.7,1.6,1.6V88.1z M64.6,82
		c0,0.9-0.7,1.6-1.6,1.6c-0.9,0-1.6-0.7-1.6-1.6v-7c0-0.9,0.7-1.6,1.6-1.6c0.9,0,1.6,0.7,1.6,1.6V82z"/>
	<polygon class="st0" points="28.5,40.7 28.5,40.7 28.5,40.7 	"/>
	<polygon class="st0" points="44.2,31.6 44.2,31.6 44.2,31.6 	"/>
	<polygon class="st0" points="77.9,32.9 77.9,32.9 77.9,32.9 	"/>
	<path class="st1" d="M76.6,61.9H66.2c-0.9,0-1.6,0.7-1.6,1.6v3.2h-2.9V51l3.8-8c0.2-0.5,0.2-1.1-0.1-1.6c-0.3-0.5-0.8-0.8-1.4-0.8
		H45.4c-0.6,0-1.1,0.3-1.4,0.8c-0.3,0.5-0.3,1.1-0.1,1.6l3.7,8l-0.1,13.5h-2v-4c0-0.9-0.7-1.6-1.6-1.6H33.6c-0.9,0-1.6,0.7-1.6,1.6
		v11.9H29v-3c0-0.9-0.7-1.6-1.6-1.6h-9c-0.9,0-1.6,0.7-1.6,1.6v6.7c0,0.4,0.2,0.9,0.5,1.2l4.1,4.1v16.1c0,0.9,0.7,1.6,1.6,1.6h17.6
		c0.4,0,0.9-0.2,1.2-0.5c0.3-0.3,0.5-0.7,0.5-1.2c-0.1-3,0.5-11.6,3.8-14.9c0.9-0.9,1.9-1.4,3.1-1.4c1.2,0,2.2,0.4,3.1,1.3
		c3.2,3.3,3.7,11.9,3.7,14.9c0,0.4,0.2,0.9,0.5,1.2c0.3,0.3,0.7,0.5,1.2,0.5h15.4c0.9,0,1.6-0.7,1.6-1.6V79.6l3.3-3.5
		c0.3-0.3,0.4-0.7,0.4-1.1V63.5C78.2,62.6,77.5,61.9,76.6,61.9z M75,74.3l-3.3,3.5c-0.3,0.3-0.4,0.7-0.4,1.1v16.7H59.1
		c-0.1-3.5-0.7-11.6-4.6-15.6c-1.5-1.6-3.3-2.3-5.5-2.3c-2.1,0-3.9,0.8-5.5,2.3c-3.9,3.9-4.6,12.1-4.7,15.6H24.6V80.6
		c0-0.4-0.2-0.9-0.5-1.2L20,75.3v-4.3h5.8v3c0,0.9,0.7,1.6,1.6,1.6h6.2c0.9,0,1.6-0.7,1.6-1.6V62h7v4c0,0.9,0.7,1.6,1.6,1.6h5.3
		c0.9,0,1.6-0.7,1.6-1.6L51,50.6c0-0.2,0-0.5-0.2-0.7l-2.8-6h13.4l-2.9,6c-0.1,0.2-0.2,0.5-0.2,0.7v17.7c0,0.9,0.7,1.6,1.6,1.6h6.2
		c0.9,0,1.6-0.7,1.6-1.6v-3.2H75V74.3z"/>
	<path class="st1" d="M34.8,79.5c-0.9,0-1.6,0.7-1.6,1.6v7c0,0.9,0.7,1.6,1.6,1.6c0.9,0,1.6-0.7,1.6-1.6v-7
		C36.5,80.2,35.8,79.5,34.8,79.5z"/>
	<path class="st1" d="M63,73.4c-0.9,0-1.6,0.7-1.6,1.6v7c0,0.9,0.7,1.6,1.6,1.6c0.9,0,1.6-0.7,1.6-1.6v-7
		C64.6,74.2,63.9,73.4,63,73.4z"/>
	<path class="st1" d="M54.5,30.4c-0.3,0-0.6,0.2-0.7,0.4L50,37.7c-0.1,0.3-0.1,0.6,0,0.8c0.1,0.3,0.4,0.4,0.7,0.4h8
		c0.3,0,0.6-0.2,0.7-0.4c0.1-0.3,0.1-0.6,0-0.8l-4.1-6.8C55.1,30.6,54.8,30.5,54.5,30.4z"/>
	<path class="st1" d="M22.7,59.1c-0.3,0-0.6,0.2-0.7,0.4l-3.1,5.6c-0.1,0.3-0.1,0.6,0,0.8c0.1,0.3,0.4,0.4,0.7,0.4h6.5
		c0.3,0,0.6-0.2,0.7-0.4c0.1-0.3,0.1-0.6,0-0.8l-3.4-5.6C23.3,59.3,23,59.1,22.7,59.1z"/>
	<path class="st1" d="M29.7,63.9c0.3,0.3,0.7,0.3,1,0.1c0.3-0.2,0.4-0.6,0.3-0.9l-7.4-20.2c-0.1-0.3-0.4-0.5-0.7-0.5c0,0,0,0,0,0
		c-0.3,0-0.6,0.2-0.7,0.5L15,63.1c-0.1,0.3,0,0.7,0.3,0.9c0.1,0.1,0.3,0.1,0.4,0.1c0.2,0,0.4-0.1,0.6-0.3l6.5-7.1L29.7,63.9z"/>
	<path class="st1" d="M38.1,50.1c-0.3,0-0.6,0.2-0.7,0.4l-3.1,5.6c-0.1,0.3-0.1,0.6,0,0.8c0.1,0.3,0.4,0.4,0.7,0.4h6.5
		c0.3,0,0.6-0.2,0.7-0.4c0.1-0.3,0.1-0.6,0-0.8l-3.4-5.6C38.6,50.3,38.4,50.2,38.1,50.1z"/>
	<path class="st1" d="M30.7,55c0.1,0.1,0.3,0.1,0.4,0.1c0.2,0,0.4-0.1,0.6-0.3l6.5-7.1l6.8,7.2c0.3,0.3,0.7,0.3,1,0.1
		c0.3-0.2,0.4-0.6,0.3-0.9l-7.4-20.2c-0.1-0.3-0.4-0.5-0.7-0.5c0,0,0,0,0,0c-0.3,0-0.6,0.2-0.7,0.5l-7.1,20.2
		C30.2,54.4,30.4,54.8,30.7,55z"/>
	<path class="st1" d="M75.3,60c0.3,0,0.6-0.2,0.7-0.4c0.1-0.3,0.1-0.6,0-0.8l-3.4-5.6c-0.2-0.3-0.4-0.4-0.7-0.4
		c-0.3,0-0.6,0.2-0.7,0.4l-3.1,5.6c-0.1,0.3-0.1,0.6,0,0.8c0.1,0.3,0.4,0.4,0.7,0.4H75.3z"/>
	<path class="st1" d="M72.7,36.4c-0.1-0.3-0.4-0.5-0.7-0.5c0,0,0,0,0,0c-0.3,0-0.6,0.2-0.7,0.5l-7.1,20.2c-0.1,0.3,0,0.7,0.3,0.9
		c0.1,0.1,0.3,0.1,0.4,0.1c0.2,0,0.4-0.1,0.6-0.3l6.5-7.1l6.8,7.2c0.3,0.3,0.7,0.3,1,0.1c0.3-0.2,0.4-0.6,0.3-0.9L72.7,36.4z"/>
	<path class="st1" d="M23.2,41.3c0,0,1.1-0.3,2.5-0.3c0.2,0,0.6,0.1,1,0.2c0.6,0.1,1.2,0.3,1.7,0.3l0.2,0c2.2-0.2,6.9-2.7,6.9-3.9
		l-0.1-0.8h-0.8l-0.3,0c-0.2,0.1-0.5,0.2-0.8,0.3c-0.8,0.4-2,0.9-4.9,0.6c-0.2,0-0.2-0.1-0.5-0.2c-0.4-0.2-1-0.5-2.4-0.6
		c-1.9-0.2-2.9,0.2-3,0.2l-0.5,0.2l0,4.2L23.2,41.3z M28.5,40.7C28.5,40.7,28.5,40.7,28.5,40.7L28.5,40.7L28.5,40.7z"/>
	<path class="st1" d="M38.9,32.2c0,0,1.1-0.3,2.5-0.3c0.2,0,0.6,0.1,1,0.2c0.6,0.1,1.2,0.3,1.7,0.3l0.2,0c0.5,0,1.1-0.2,1.8-0.4
		l-1.3,3.7c-0.1,0.4,0,0.8,0.4,1c0.1,0.1,0.3,0.1,0.4,0.1c0.2,0,0.4-0.1,0.6-0.3l8.3-9.1l8.6,9.1c0.3,0.3,0.7,0.3,1,0.1
		c0.3-0.2,0.5-0.6,0.3-1l-9.3-25.4c-0.1-0.3-0.4-0.5-0.8-0.5c0,0,0,0,0,0c-0.3,0-0.7,0.2-0.8,0.5l-6.4,18.3c-0.7,0.1-1.6,0.1-2.9,0
		c-0.2,0-0.2-0.1-0.5-0.2c-0.4-0.2-1-0.5-2.4-0.6c-1.9-0.2-2.9,0.2-3,0.2l-0.5,0.2l0,4.2L38.9,32.2z M44.2,31.6
		C44.2,31.6,44.2,31.6,44.2,31.6L44.2,31.6L44.2,31.6z"/>
	<path class="st1" d="M59.2,7.3c0.3,0,1,0.1,1.6,0.3c1,0.2,2.1,0.5,2.9,0.4c3.7-0.3,10.5-4.2,10.5-5.6l-0.1-0.8h-0.8
		c-0.1,0-0.2,0-0.4,0.1c-0.4,0.1-0.7,0.3-1.1,0.4c-1.1,0.5-2.5,1.1-5.6,1.1c-0.8,0-1.6,0-2.5-0.1c-0.3,0-0.6-0.1-0.9-0.3
		c-0.7-0.3-1.5-0.7-3.6-0.9C56.2,1.5,54.7,2,54.6,2L54,2.2V8l1-0.3C55.1,7.7,56.8,7.3,59.2,7.3z"/>
	<path class="st1" d="M84.9,29.1h-0.8l-0.3,0c-0.2,0.1-0.5,0.2-0.8,0.3c-0.9,0.4-2,0.9-4.9,0.6c-0.2,0-0.2-0.1-0.5-0.2
		c-0.4-0.2-1-0.5-2.4-0.6c-1.9-0.2-2.9,0.2-3,0.2l-0.5,0.2l0,4.2l1-0.3c0,0,1.1-0.3,2.5-0.3c0.2,0,0.6,0.1,1,0.2
		c0.6,0.1,1.2,0.3,1.7,0.3l0.2,0c2.2-0.2,6.9-2.6,6.9-3.9L84.9,29.1z M77.9,32.9C77.9,32.9,77.9,32.9,77.9,32.9L77.9,32.9L77.9,32.9
		z"/>
</g>
</svg>
