<?xml version="1.0" encoding="utf-8"?>
<!-- Generator: Adobe Illustrator 21.0.0, SVG Export Plug-In . SVG Version: 6.00 Build 0)  -->
<!DOCTYPE svg PUBLIC "-//W3C//DTD SVG 1.1//EN" "http://www.w3.org/Graphics/SVG/1.1/DTD/svg11.dtd">
<svg version="1.1" id="Layer_1" xmlns="http://www.w3.org/2000/svg" xmlns:xlink="http://www.w3.org/1999/xlink" x="0px" y="0px"
	 viewBox="0 0 100 100" style="enable-background:new 0 0 100 100;" xml:space="preserve">
<style type="text/css">
	.st0{fill:none;}
	.st1{fill:#00AEEF;}
</style>
<g>
	<path class="st0" d="M64.3,58.1c0,0.8-0.6,1.4-1.4,1.4h-5.2c-0.8,0-1.4-0.6-1.4-1.4v-15c0-0.2,0-0.4,0.1-0.6l2.4-5.1H47.5l2.4,5.1
		c0.1,0.2,0.1,0.4,0.1,0.6l-0.1,13.1c0,0.8-0.6,1.4-1.4,1.4H44c-0.8,0-1.4-0.6-1.4-1.4v-3.4h-5.9v10.1c0,0.8-0.6,1.4-1.4,1.4H30
		c-0.8,0-1.4-0.6-1.4-1.4v-2.6h-4.9v3.7l3.5,3.5c0.3,0.3,0.4,0.6,0.4,1v12.8h12.1c0.1-3,0.7-9.9,4-13.2c1.3-1.3,2.8-2,4.6-2
		c1.8,0,3.3,0.7,4.6,2c3.2,3.3,3.8,10.2,3.9,13.2h10.3V67.1c0-0.3,0.1-0.7,0.4-0.9l2.8-3v-7.8h-6V58.1z M37.7,74.8
		c0,0.8-0.6,1.4-1.4,1.4c-0.8,0-1.4-0.6-1.4-1.4v-5.9c0-0.8,0.6-1.4,1.4-1.4c0.8,0,1.4,0.6,1.4,1.4V74.8z M61.6,69.7
		c0,0.8-0.6,1.4-1.4,1.4c-0.8,0-1.4-0.6-1.4-1.4v-5.9c0-0.8,0.6-1.4,1.4-1.4c0.8,0,1.4,0.6,1.4,1.4V69.7z"/>
	<polygon class="st0" points="30.9,34.7 30.9,34.7 30.9,34.7 	"/>
	<polygon class="st0" points="44.2,26.9 44.2,27 44.2,26.9 	"/>
	<polygon class="st0" points="72.8,28.1 72.8,28.1 72.8,28.1 	"/>
	<path class="st1" d="M71.7,52.6h-8.8c-0.8,0-1.4,0.6-1.4,1.4v2.7h-2.4V43.4l3.2-6.8c0.2-0.4,0.2-0.9-0.1-1.3
		c-0.3-0.4-0.7-0.6-1.2-0.6H45.3c-0.5,0-0.9,0.2-1.2,0.6c-0.3,0.4-0.3,0.9-0.1,1.3l3.2,6.8l-0.1,11.4h-1.7v-3.4
		c0-0.8-0.6-1.4-1.4-1.4h-8.7c-0.8,0-1.4,0.6-1.4,1.4v10.1h-2.5v-2.6c0-0.8-0.6-1.4-1.4-1.4h-7.7c-0.8,0-1.4,0.6-1.4,1.4v5.6
		c0,0.4,0.1,0.7,0.4,1l3.5,3.5v13.6c0,0.8,0.6,1.4,1.4,1.4h14.9c0.4,0,0.7-0.1,1-0.4c0.3-0.3,0.4-0.6,0.4-1
		c-0.1-2.5,0.4-9.8,3.2-12.6c0.8-0.8,1.6-1.1,2.6-1.1c1,0,1.9,0.4,2.6,1.1c2.7,2.8,3.2,10.1,3.1,12.6c0,0.4,0.1,0.7,0.4,1
		c0.3,0.3,0.6,0.4,1,0.4h13c0.8,0,1.4-0.6,1.4-1.4v-15l2.8-3c0.2-0.3,0.4-0.6,0.4-0.9V54C73.1,53.2,72.5,52.6,71.7,52.6z M70.3,63.1
		l-2.8,3c-0.2,0.3-0.4,0.6-0.4,0.9v14.2H56.9c-0.1-3-0.6-9.9-3.9-13.2c-1.3-1.3-2.8-2-4.6-2c-1.8,0-3.3,0.7-4.6,2
		c-3.3,3.3-3.9,10.2-4,13.2H27.7V68.4c0-0.4-0.1-0.7-0.4-1l-3.5-3.5v-3.7h4.9v2.6c0,0.8,0.6,1.4,1.4,1.4h5.2c0.8,0,1.4-0.6,1.4-1.4
		V52.7h5.9v3.4c0,0.8,0.6,1.4,1.4,1.4h4.5c0.8,0,1.4-0.6,1.4-1.4L50,43.1c0-0.2,0-0.4-0.1-0.6l-2.4-5.1h11.3l-2.4,5.1
		c-0.1,0.2-0.1,0.4-0.1,0.6v15c0,0.8,0.6,1.4,1.4,1.4h5.2c0.8,0,1.4-0.6,1.4-1.4v-2.7h6V63.1z"/>
	<path class="st1" d="M36.3,67.5c-0.8,0-1.4,0.6-1.4,1.4v5.9c0,0.8,0.6,1.4,1.4,1.4c0.8,0,1.4-0.6,1.4-1.4v-5.9
		C37.7,68.1,37.1,67.5,36.3,67.5z"/>
	<path class="st1" d="M60.2,62.4c-0.8,0-1.4,0.6-1.4,1.4v5.9c0,0.8,0.6,1.4,1.4,1.4c0.8,0,1.4-0.6,1.4-1.4v-5.9
		C61.6,63,60.9,62.4,60.2,62.4z"/>
	<path class="st1" d="M53,26c-0.2,0-0.5,0.1-0.6,0.4l-3.3,5.8c-0.1,0.2-0.1,0.5,0,0.7c0.1,0.2,0.4,0.3,0.6,0.3h6.7
		c0.2,0,0.5-0.1,0.6-0.4c0.1-0.2,0.1-0.5,0-0.7l-3.5-5.8C53.5,26.1,53.3,26,53,26z"/>
	<path class="st1" d="M26.1,50.3c-0.2,0-0.5,0.1-0.6,0.4l-2.7,4.7c-0.1,0.2-0.1,0.5,0,0.7c0.1,0.2,0.4,0.3,0.6,0.3H29
		c0.2,0,0.5-0.1,0.6-0.4c0.1-0.2,0.1-0.5,0-0.7l-2.9-4.7C26.6,50.4,26.3,50.3,26.1,50.3z"/>
	<path class="st1" d="M31.9,54.3c0.2,0.2,0.6,0.3,0.8,0.1c0.3-0.2,0.4-0.5,0.3-0.8l-6.2-17.1c-0.1-0.3-0.3-0.4-0.6-0.4c0,0,0,0,0,0
		c-0.3,0-0.5,0.2-0.6,0.4l-6,17.1c-0.1,0.3,0,0.6,0.3,0.8c0.1,0.1,0.2,0.1,0.3,0.1c0.2,0,0.4-0.1,0.5-0.2l5.5-6L31.9,54.3z"/>
	<path class="st1" d="M39.1,42.7c-0.2,0-0.5,0.1-0.6,0.4l-2.7,4.7c-0.1,0.2-0.1,0.5,0,0.7c0.1,0.2,0.4,0.3,0.6,0.3h5.5
		c0.3,0,0.5-0.1,0.6-0.4c0.1-0.2,0.1-0.5,0-0.7L39.7,43C39.6,42.8,39.3,42.7,39.1,42.7z"/>
	<path class="st1" d="M32.8,46.8c0.1,0.1,0.2,0.1,0.3,0.1c0.2,0,0.4-0.1,0.5-0.2l5.5-6l5.8,6.1c0.2,0.2,0.6,0.3,0.8,0.1
		c0.3-0.2,0.4-0.5,0.3-0.8l-6.2-17.1c-0.1-0.3-0.3-0.4-0.6-0.4c0,0,0,0,0,0c-0.3,0-0.5,0.2-0.6,0.4l-6,17.1
		C32.4,46.3,32.6,46.6,32.8,46.8z"/>
	<path class="st1" d="M70.6,51c0.2,0,0.5-0.1,0.6-0.4c0.1-0.2,0.1-0.5,0-0.7l-2.9-4.7c-0.1-0.2-0.4-0.3-0.6-0.3
		c-0.2,0-0.5,0.1-0.6,0.4L64.5,50c-0.1,0.2-0.1,0.5,0,0.7c0.1,0.2,0.4,0.3,0.6,0.3H70.6z"/>
	<path class="st1" d="M68.4,31.1c-0.1-0.3-0.3-0.4-0.6-0.4c0,0,0,0,0,0c-0.3,0-0.5,0.2-0.6,0.4l-6,17.1c-0.1,0.3,0,0.6,0.3,0.8
		c0.1,0.1,0.2,0.1,0.3,0.1c0.2,0,0.4-0.1,0.5-0.2l5.5-6l5.8,6.1c0.2,0.2,0.6,0.3,0.8,0.1c0.3-0.2,0.4-0.5,0.3-0.8L68.4,31.1z"/>
	<path class="st1" d="M26.5,35.2c0,0,0.9-0.2,2.1-0.2c0.1,0,0.5,0.1,0.8,0.1c0.5,0.1,1,0.2,1.5,0.2l0.2,0c1.8-0.1,5.9-2.2,5.8-3.3
		l-0.1-0.7h-0.7l-0.3,0c-0.2,0.1-0.4,0.1-0.6,0.3c-0.7,0.3-1.7,0.7-4.2,0.5c-0.1,0-0.2,0-0.4-0.1c-0.4-0.2-0.9-0.4-2-0.5
		c-1.6-0.2-2.5,0.1-2.6,0.2l-0.5,0.2l0,3.6L26.5,35.2z M30.9,34.7C30.9,34.7,30.9,34.7,30.9,34.7L30.9,34.7L30.9,34.7z"/>
	<path class="st1" d="M39.8,27.5c0,0,0.9-0.2,2.1-0.2c0.1,0,0.5,0.1,0.8,0.1c0.5,0.1,1,0.2,1.5,0.2l0.2,0c0.4,0,0.9-0.2,1.5-0.4
		l-1.1,3.2c-0.1,0.3,0,0.7,0.3,0.8c0.1,0.1,0.2,0.1,0.4,0.1c0.2,0,0.4-0.1,0.5-0.2l7-7.7l7.3,7.7c0.2,0.2,0.6,0.3,0.9,0.1
		c0.3-0.2,0.4-0.5,0.3-0.8L53.6,9c-0.1-0.3-0.4-0.5-0.7-0.5c0,0,0,0,0,0c-0.3,0-0.6,0.2-0.6,0.5l-5.4,15.5c-0.6,0.1-1.4,0.1-2.5,0
		c-0.1,0-0.2,0-0.4-0.1c-0.4-0.2-0.9-0.4-2-0.5c-1.6-0.2-2.5,0.1-2.6,0.2l-0.5,0.2l0,3.6L39.8,27.5z M44.2,26.9
		C44.2,26.9,44.2,26.9,44.2,26.9L44.2,26.9L44.2,26.9z"/>
	<path class="st1" d="M56.9,6.4c0.3,0,0.8,0.1,1.4,0.2C59.2,6.8,60.1,7,60.8,7c3.1-0.2,8.9-3.6,8.9-4.8l-0.1-0.7h-0.7
		c-0.1,0-0.2,0-0.3,0.1c-0.3,0.1-0.6,0.2-1,0.4c-0.9,0.4-2.1,1-4.7,1c-0.6,0-1.3,0-2.1-0.1c-0.3,0-0.5-0.1-0.8-0.3
		c-0.6-0.3-1.3-0.6-3.1-0.8C54.4,1.5,53.1,1.9,53,2l-0.5,0.2V7l0.9-0.2C53.5,6.8,54.9,6.4,56.9,6.4z"/>
	<path class="st1" d="M78.7,24.8h-0.7l-0.3,0c-0.2,0.1-0.4,0.1-0.6,0.3c-0.7,0.3-1.7,0.7-4.2,0.5c-0.1,0-0.2,0-0.4-0.1
		c-0.4-0.2-0.9-0.4-2-0.5c-1.6-0.2-2.5,0.1-2.6,0.2l-0.5,0.2l0,3.6l0.9-0.2c0,0,0.9-0.2,2.1-0.2c0.1,0,0.5,0.1,0.8,0.1
		c0.5,0.1,1,0.2,1.5,0.2l0.2,0c1.8-0.1,5.9-2.2,5.8-3.3L78.7,24.8z M72.8,28.1C72.8,28.1,72.8,28.1,72.8,28.1L72.8,28.1L72.8,28.1z"
		/>
	<path class="st1" d="M62.9,89.2c0.8,0,1.4-0.6,1.4-1.4c0-0.8-0.6-1.4-1.4-1.4H31.8c-0.8,0-1.4,0.6-1.4,1.4c0,0.8,0.6,1.4,1.4,1.4
		H62.9z"/>
	<path class="st1" d="M25.9,92.5c0,0.8,0.6,1.4,1.4,1.4h40.2c0.8,0,1.4-0.6,1.4-1.4c0-0.8-0.6-1.4-1.4-1.4H27.2
		C26.5,91.1,25.9,91.7,25.9,92.5z"/>
	<path class="st1" d="M71.5,95.7H23.2c-0.8,0-1.4,0.6-1.4,1.4c0,0.8,0.6,1.4,1.4,1.4h48.3c0.8,0,1.4-0.6,1.4-1.4
		C72.9,96.3,72.3,95.7,71.5,95.7z"/>
</g>
</svg>
