<?xml version="1.0" encoding="utf-8"?>
<!-- Generator: Adobe Illustrator 21.0.0, SVG Export Plug-In . SVG Version: 6.00 Build 0)  -->
<!DOCTYPE svg PUBLIC "-//W3C//DTD SVG 1.1//EN" "http://www.w3.org/Graphics/SVG/1.1/DTD/svg11.dtd">
<svg version="1.1" id="Layer_1" xmlns="http://www.w3.org/2000/svg" xmlns:xlink="http://www.w3.org/1999/xlink" x="0px" y="0px"
	 viewBox="0 0 100 100" style="enable-background:new 0 0 100 100;" xml:space="preserve">
<style type="text/css">
	.st0{fill:#00AEEF;}
</style>
<g transform="translate(-407 -200)">
	<g>
		<path class="st0" d="M502.1,251.9v-12.6c1.3,1,2.6,2,4.1,2.9v-2.5c-6-4.1-10.3-9-12.3-11.4v-7.1h-4.1v7.1
			c-3.8,4.7-16.3,18.5-32.8,18.5c-16.4,0-29-13.8-32.8-18.5v-7.1h-4.1v7.1c-2,2.4-6.3,7.3-12.3,11.4v2.5c1.5-0.9,2.8-1.9,4.1-2.9
			v12.6h-4.1v4.1h10.2v-4.1H414v-14.3c2.6-2.2,4.6-4.4,6.1-6.1v34.7h-2v4.1h-2v2h12.3v-2h-2v-4.1h-2v-34.7c1.5,1.7,3.6,3.9,6.1,6.1
			v14.3h-4.1v4.1h61.5v-4.1h-4.1v-14.3c2.6-2.2,4.6-4.4,6.1-6.1v34.7h-2v4.1h-2v2H498v-2h-2v-4.1h-2v-34.7c1.5,1.7,3.6,3.9,6.1,6.1
			v14.3h-4.1v4.1h10.2v-4.1H502.1z M432.4,251.9v-12.6c2.4,1.9,5.2,3.7,8.2,5.3v7.3H432.4z M442.7,251.9v-6.3c2.6,1.1,5.3,2,8.2,2.6
			v3.7H442.7z M452.9,251.9v-3.3c1.3,0.2,2.7,0.3,4.1,0.3s2.8-0.1,4.1-0.3v3.3H452.9z M463.1,251.9v-3.7c2.9-0.6,5.6-1.5,8.2-2.6
			v6.3H463.1z M481.6,251.9h-8.2v-7.3c3-1.6,5.8-3.4,8.2-5.3V251.9z"/>
		<rect x="432.4" y="270.3" class="st0" width="4.1" height="2"/>
		<rect x="407.8" y="270.3" class="st0" width="4.1" height="2"/>
		<rect x="448.8" y="270.3" class="st0" width="4.1" height="2"/>
		<rect x="440.6" y="270.3" class="st0" width="4.1" height="2"/>
		<rect x="461.1" y="270.3" class="st0" width="4.1" height="2"/>
		<rect x="477.5" y="270.3" class="st0" width="4.1" height="2"/>
		<rect x="469.3" y="270.3" class="st0" width="4.1" height="2"/>
		<rect x="502.1" y="270.3" class="st0" width="4.1" height="2"/>
	</g>
</g>
</svg>
