<?xml version="1.0" encoding="utf-8"?>
<!-- Generator: Adobe Illustrator 21.0.0, SVG Export Plug-In . SVG Version: 6.00 Build 0)  -->
<!DOCTYPE svg PUBLIC "-//W3C//DTD SVG 1.1//EN" "http://www.w3.org/Graphics/SVG/1.1/DTD/svg11.dtd">
<svg version="1.1" id="Layer_1" xmlns="http://www.w3.org/2000/svg" xmlns:xlink="http://www.w3.org/1999/xlink" x="0px" y="0px"
	 viewBox="0 0 382.3 152.6" style="enable-background:new 0 0 382.3 152.6;" xml:space="preserve">
<style type="text/css">
	.st0{fill:#00AEEF;}
	.st1{fill:url(#SVGID_1_);}
	.st2{fill:#FFFFFF;}
</style>
<g>
	<path class="st0" d="M109.9,75.3c-1,0-2,0.1-3,0.3c-1,0.2-1.9,0.6-2.7,1l0.1,0.4c1.1-0.1,2.1,0,2.9,0.4c0.9,0.4,1.6,1.1,2.3,1.9
		c0.7,0.8,1.2,1.8,1.7,2.9c0.5,1.1,0.9,2.3,1.2,3.5c0.3,1.2,0.5,2.4,0.6,3.6c0.1,1.2,0.2,2.3,0.2,3.4c0,1.2-0.1,2.6-0.2,4
		c-0.1,1.4-0.4,2.8-0.7,4.3c-0.3,1.4-0.7,2.8-1.1,4.1c-0.4,1.3-1,2.5-1.6,3.5c-0.6,1-1.3,1.8-2.1,2.4c-0.8,0.6-1.6,0.9-2.5,0.9
		c-0.3,0-0.6-0.5-1-1.4c-0.4-0.9-0.7-2.1-1.1-3.5s-0.7-2.9-1.1-4.6c-0.3-1.6-0.7-3.2-1-4.7c-0.3-1.5-0.5-2.7-0.7-3.8
		c-0.2-1.1-0.3-1.7-0.3-1.9c-0.1-0.5-0.2-1.1-0.4-2s-0.4-1.7-0.6-2.5c-0.3-0.8-0.6-1.6-1-2.2c-0.4-0.6-1-0.9-1.6-0.9
		c-0.4,0-0.9,0.1-1.4,0.2c-0.5,0.2-1,0.4-1.5,0.7c-0.5,0.3-0.9,0.6-1.2,1c-0.3,0.4-0.5,0.8-0.5,1.3c0,0.3,0,0.6,0.1,0.7
		c0.2,0.6,0.4,1.5,0.6,2.5c0.2,1,0.5,2.2,0.8,3.6c-0.3,1.7-0.7,3.5-1.2,5.5c-0.5,2-1.1,3.9-1.7,5.6s-1.4,3.2-2.2,4.4
		c-0.8,1.2-1.7,1.8-2.6,1.8c-0.3,0-0.6-0.3-0.9-1c-0.3-0.6-0.6-1.5-0.9-2.4c-0.3-1-0.6-2.1-0.8-3.2c-0.2-1.2-0.5-2.3-0.7-3.4
		c-0.2-1.1-0.4-2-0.5-2.8c-0.1-0.8-0.2-1.4-0.2-1.6c-0.1-0.4-0.1-1-0.2-1.7c-0.1-0.8-0.2-1.6-0.3-2.6c-0.1-0.9-0.3-1.9-0.6-2.9
		c-0.2-1-0.5-1.9-0.9-2.7c-0.3-0.8-0.7-1.5-1.2-2c-0.5-0.5-1-0.8-1.6-0.8c-0.7,0-1.5,0.1-2.3,0.4c-0.8,0.3-1.6,0.7-2.4,1.1
		c-0.8,0.5-1.5,1-2.2,1.5c-0.7,0.5-1.3,1.1-1.7,1.6l0.3,0.5c0.5-0.3,1.1-0.6,1.8-0.9c0.7-0.3,1.4-0.5,2-0.5c0.1,0,0.3,0.2,0.4,0.5
		c0.1,0.3,0.3,0.7,0.4,1.2c0.1,0.4,0.2,0.8,0.2,1.2c0.1,0.4,0.1,0.6,0.1,0.7c0.1,0.7,0.3,1.7,0.6,3.1c0.3,1.4,0.6,3,1,4.7
		c0.4,1.7,0.8,3.5,1.4,5.3c0.5,1.8,1.2,3.5,1.8,4.9c0.7,1.5,1.4,2.7,2.3,3.7c0.8,1,1.8,1.4,2.8,1.4c1.6,0,3-0.5,4.1-1.6
		c1.2-1.1,2.2-2.4,3-4.1c0.9-1.6,1.6-3.5,2.2-5.5s1.1-3.9,1.6-5.7c0.5,2,1.1,3.9,1.7,5.9c0.6,2,1.3,3.8,2.1,5.4c0.7,1.6,1.5,3,2.3,4
		c0.8,1,1.7,1.5,2.5,1.5c1.5,0,2.9-0.5,4.2-1.5c1.3-1,2.6-2.4,3.8-4.1c1.2-1.7,2.2-3.7,3.2-5.9c0.9-2.2,1.8-4.5,2.4-6.8
		c0.7-2.3,1.2-4.6,1.6-6.9c0.4-2.3,0.5-4.3,0.5-6.2c0-2.7-0.7-4.8-2.1-6.4C114.8,76.1,112.7,75.3,109.9,75.3z"/>
	<linearGradient id="SVGID_1_" gradientUnits="userSpaceOnUse" x1="121.7693" y1="98.1409" x2="382.2628" y2="98.1409">
		<stop  offset="0" style="stop-color:#00AEEF"/>
		<stop  offset="1" style="stop-color:#00AEEF;stop-opacity:0.5"/>
	</linearGradient>
	<path class="st1" d="M381.3,120.6c-0.6-2.5-1.3-5.1-2-7.6s-1.4-5.1-2-7.7c-0.6-2.6-0.9-5.5-0.9-8.5c0-1.1,0.1-2.2,0.2-3.4
		c0.1-1.1,0.3-2.3,0.6-3.4c0.3-1.1,0.7-2.2,1.3-3.2c0.5-1,1.2-1.9,2-2.8l-0.4-0.2c-1.7,0.9-3.1,2-4.1,3.4c-1.1,1.4-1.9,2.9-2.5,4.6
		c-0.6,1.7-1,3.4-1.3,5.3c-0.2,1.8-0.3,3.6-0.3,5.3c0,1.2,0,2.5,0.1,3.7c-1.1,1.1-2.4,1.9-3.7,2.6c-1.4,0.7-2.8,1-4.4,1
		c-1.3,0-2.4-0.3-3.3-1c-0.9-0.7-1.6-1.5-2.1-2.6c-0.5-1-0.9-2.2-1.1-3.4c-0.2-1.2-0.3-2.4-0.3-3.4c0-2.5,0.4-4.9,1.2-7.3
		c0.8-2.4,1.9-4.6,3.4-6.7l-0.6-0.3c-1.4,1-2.8,2.2-4,3.5c-1.2,1.3-2.3,2.8-3.2,4.3c-0.9,1.5-1.6,3.2-2.1,4.9
		c-0.5,1.7-0.7,3.5-0.7,5.3c0,1.6,0.2,3.1,0.7,4.5c0,0,0,0,0,0.1l-0.3,0.4c-1,1.2-2.2,2.1-3.3,2.8c-1.1,0.6-2.5,0.9-4,0.9
		c-1.6,0-3-0.5-4.2-1.5c-1.2-1-2.3-2.3-3.2-4s-1.7-3.5-2.4-5.6c-0.6-2.1-1.2-4.3-1.7-6.5c2.3-1.7,4.4-3.8,6.4-6.3
		c2-2.5,3.7-5.3,5.2-8.4c1.5-3.1,2.6-6.4,3.5-9.8c0.8-3.5,1.3-7,1.3-10.6c0-1.3-0.1-2.8-0.3-4.5c-0.2-1.7-0.6-3.3-1.3-4.8
		c-0.6-1.5-1.5-2.8-2.6-3.8c-1.1-1-2.5-1.5-4.3-1.5c-2.1,0-3.9,0.6-5.5,1.8c-1.6,1.2-3,2.7-4.2,4.7c-1.2,1.9-2.2,4.2-3.1,6.7
		c-0.8,2.5-1.5,5.1-2.1,7.8c-0.5,2.7-0.9,5.3-1.1,8c-0.2,2.6-0.3,5-0.3,7.2c0,1.8,0.1,3.9,0.4,6.3s0.6,4.9,1.2,7.5
		c0.5,2.6,1.2,5.2,2.1,7.7c0.3,0.8,0.6,1.6,0.9,2.4l-1.6,2.1c-1.1,1.5-2.3,2.7-3.7,3.6c-1.4,0.9-3,1.4-4.9,1.4
		c-1.3,0-2.4-0.2-3.2-0.6s-1.5-1-2-1.7c-0.5-0.7-0.8-1.6-1-2.6c-0.2-1-0.3-2.1-0.3-3.4c0-1.4,0.1-2.9,0.4-4.3c0.3-1.4,0.6-2.9,1-4.3
		c0.2-0.4,0.3-0.8,0.4-1.3c0.1-0.4,0.1-0.9,0.1-1.4c0-0.9-0.3-1.7-0.8-2.2c-0.5-0.5-1.2-1-2.1-1.3c-0.8-0.3-1.8-0.5-2.9-0.7
		c-1.1-0.1-2.1-0.3-3.2-0.4c-1.1-0.1-2.1-0.3-3-0.4c-1-0.2-1.8-0.4-2.4-0.8c-0.5-0.3-0.9-0.7-1.1-1.1c-0.3-0.4-0.5-0.8-0.7-1.2
		c-0.2-0.4-0.4-0.7-0.7-1c-0.3-0.3-0.6-0.4-1.1-0.4c-0.9,0-1.7,0.3-2.3,0.8c-0.6,0.5-0.9,1.3-0.9,2.2c0,0.6,0.1,1.1,0.2,1.7
		c0.1,0.5,0.3,1.1,0.4,1.7c0.1,0.6,0.3,1.2,0.4,1.9c0.1,0.6,0.2,1.3,0.2,2.1c0,1.4-0.2,3-0.5,4.6c-0.3,1.6-0.8,3.2-1.3,4.8
		c-0.6,1.6-1.2,3.1-2,4.6c-0.2,0.3-0.4,0.6-0.6,0.9c-1.5,1-3,1.8-4.7,2.5c-2.3,0.9-4.8,1.3-7.2,1.3c-3.5,0-6.2-0.8-8.1-2.4
		c-2-1.6-3.2-3.9-3.6-6.9h1.2c1,0,2.2-0.1,3.4-0.2s2.5-0.4,3.8-0.7c1.3-0.3,2.5-0.8,3.7-1.3c1.2-0.5,2.2-1.2,3.2-2
		c0.9-0.8,1.7-1.7,2.2-2.8c0.6-1.1,0.8-2.3,0.8-3.7c0-1.2-0.2-2.2-0.6-3.1c-0.4-0.9-1-1.7-1.7-2.3c-0.7-0.6-1.6-1.1-2.6-1.4
		c-1-0.3-2-0.5-3.2-0.5c-2.4,0-4.6,0.4-6.7,1.3c-2.1,0.9-3.9,2.1-5.5,3.7c-1.5,1.5-2.8,3.4-3.6,5.4c-0.9,2.1-1.3,4.3-1.3,6.7
		c0,2.4,0.4,4.6,1.2,6.4c0.1,0.1,0.2,0.2,0.2,0.4c-0.1,0.1-0.2,0.3-0.4,0.4c-0.7,0.7-1.4,1.4-2.2,1.9c-0.8,0.6-1.6,1-2.5,1.4
		c-0.9,0.4-1.7,0.5-2.6,0.5c-1.1,0-2-0.4-2.7-1.3c-0.8-0.9-1.4-2.1-2-3.5s-1-3-1.3-4.8c-0.3-1.8-0.6-3.5-0.9-5.3
		c-0.2-1.7-0.4-3.4-0.6-4.9c-0.2-1.5-0.3-2.8-0.4-3.7c-0.1-0.4-0.1-0.9-0.2-1.4c-0.1-0.5-0.2-1-0.4-1.5c-0.2-0.5-0.5-0.9-0.8-1.2
		c-0.3-0.3-0.8-0.5-1.3-0.5c-0.5,0-0.9,0.1-1.3,0.3c-0.4,0.2-0.8,0.5-1.1,0.9c-0.3,0.3-0.6,0.7-0.9,1.2c-0.3,0.4-0.6,0.9-0.8,1.3
		c-1.9,3-3.7,6.4-5.3,10c-1.6,3.6-3.2,7.4-4.6,11.2c-0.4-2.5-0.7-4.9-0.9-7c-0.2-2.2-0.4-4.2-0.4-6.1c-0.1-1.9-0.1-3.8-0.1-5.5
		c0-1.8,0-3.5,0-5.2c0-2.4,0.1-5,0.4-7.7c1.1-0.2,2.2-0.4,3.2-0.7l-0.2-0.8c-0.6,0.1-1.6,0.2-2.8,0.3c0.3-2.6,0.7-5.1,1.2-7.6
		c0.6-2.8,1.3-5.4,2.1-7.9c0.8-2.5,1.8-4.8,2.8-6.7s2.2-3.4,3.5-4.6c1.3-1.1,2.7-1.7,4.1-1.7c0.7,0,1.4,0.1,1.9,0.4
		c0.5,0.3,0.9,0.7,1.3,1.1c0.3,0.5,0.6,1,0.7,1.7c0.1,0.6,0.2,1.3,0.2,2c0,1.3-0.2,2.8-0.5,4.4c-0.4,1.6-0.9,3.3-1.5,5
		c-0.6,1.7-1.4,3.5-2.2,5.3c-0.8,1.8-1.7,3.5-2.6,5.1c-0.9,1.6-1.8,3.1-2.8,4.5c-0.9,1.4-1.8,2.5-2.7,3.5L233,81
		c1.9-2,3.9-4.1,5.9-6.4c2-2.3,3.9-4.8,5.6-7.4c1.7-2.6,3.1-5.3,4.1-8.2c1.1-2.8,1.6-5.8,1.6-8.9c0-2.1-0.5-3.7-1.6-4.8
		s-2.6-1.7-4.5-1.7c-2.9,0-5.5,0.6-7.8,1.8c-2.3,1.2-4.4,2.9-6.2,5c-1.8,2.1-3.4,4.5-4.7,7.3c-1.3,2.8-2.4,5.7-3.2,8.9
		c-0.8,3.1-1.5,6.3-1.9,9.6c-2.2,0.1-5,0.1-8.4,0.1c-2.5,0-5-0.1-7.6-0.2c-2.6-0.1-5.1-0.3-7.5-0.4c0.4-3.8,1-7.5,1.8-11.2
		c0.8-3.7,1.8-7.4,2.8-11H201c-1.7,3.1-3.2,6.6-4.5,10.4c-1.3,3.8-2.4,7.7-3.2,11.6c-2.6-0.2-4.9-0.4-6.7-0.5
		c-1.9-0.2-3-0.2-3.5-0.2c-0.4,0-0.9,0-1.3,0.1c-0.4,0-0.8,0.1-1.1,0.3c-0.3,0.1-0.6,0.4-0.7,0.7c-0.2,0.3-0.3,0.7-0.3,1.2
		c0,0.9,0.2,1.6,0.7,2c0.5,0.5,1,0.8,1.7,1c0.7,0.2,1.4,0.4,2.2,0.4c0.8,0,1.5,0,2.1,0c1,0,1.9,0,2.9,0c1,0,2,0,3,0
		c-0.3,1.8-0.5,3.5-0.6,5.2c-0.1,1.7-0.2,3.3-0.2,4.9c0,1.7,0.1,3.5,0.3,5.4c0.2,1.9,0.5,3.8,1,5.6c0.1,0.5,0.3,1,0.4,1.5l-2.6,3.2
		c-1.1,1.2-2.3,2.1-3.7,2.9c-1.4,0.8-2.9,1.1-4.6,1.1c-1.4,0-2.5-0.2-3.3-0.7c-0.9-0.4-1.5-1.1-2-1.8c-0.5-0.8-0.8-1.7-1-2.8
		c-0.2-1.1-0.3-2.2-0.3-3.4c0-1.2,0.1-2.3,0.2-3.5c0.2-1.2,0.4-2.4,0.8-3.5l-0.6-0.4c-0.7,0.8-1.4,1.7-2,2.7c-0.6,1-1.2,2.1-1.7,3.3
		c-0.5,1.1-0.9,2.3-1.2,3.5c-0.3,1.2-0.5,2.3-0.5,3.4c-1,0.7-2,1.3-3.1,1.8c-1.1,0.4-2.2,0.7-3.4,0.7c-1.1,0-2.1-0.2-2.8-0.7
		c-0.7-0.4-1.3-1-1.7-1.8c-0.4-0.7-0.7-1.6-0.9-2.5c-0.2-0.9-0.2-1.9-0.2-2.8c0-1.4,0.2-2.9,0.7-4.6c0.5-1.7,1.1-3.3,2-4.8
		c0.9-1.5,2-2.8,3.2-3.8c1.3-1,2.7-1.5,4.4-1.5c0.7,0,1.3,0.1,1.9,0.3c0.5,0.2,1,0.4,1.4,0.6c0.4,0.2,0.8,0.4,1.1,0.6
		c0.3,0.2,0.6,0.3,0.9,0.3c0.4,0,0.7-0.1,0.9-0.4c0.3-0.3,0.4-0.6,0.4-1c0-0.6-0.2-1-0.5-1.4c-0.3-0.4-0.8-0.6-1.3-0.8
		c-0.5-0.2-1-0.3-1.5-0.4c-0.5-0.1-1-0.1-1.3-0.1c-1.6,0-3.2,0.3-4.7,0.9s-3,1.4-4.4,2.4c-1.4,1-2.7,2.2-3.8,3.6
		c-1.2,1.4-2.2,2.8-3,4.3c-0.8,1.5-1.5,3.1-2,4.7c-0.5,1.6-0.7,3.1-0.7,4.6c0,0.7,0.1,1.5,0.2,2.2c-1.5,1-3,1.8-4.7,2.5
		c-2.3,0.9-4.8,1.3-7.2,1.3c-3.5,0-6.2-0.8-8.1-2.4c-2-1.6-3.2-3.9-3.6-6.9h1.2c1,0,2.2-0.1,3.4-0.2c1.2-0.1,2.5-0.4,3.8-0.7
		c1.3-0.3,2.5-0.8,3.7-1.3c1.2-0.5,2.2-1.2,3.2-2c0.9-0.8,1.7-1.7,2.2-2.8c0.6-1.1,0.8-2.3,0.8-3.7c0-1.2-0.2-2.2-0.6-3.1
		c-0.4-0.9-1-1.7-1.7-2.3c-0.7-0.6-1.6-1.1-2.6-1.4c-1-0.3-2-0.5-3.2-0.5c-2.4,0-4.6,0.4-6.7,1.3c-2.1,0.9-3.9,2.1-5.5,3.7
		c-1.5,1.5-2.8,3.4-3.6,5.4c-0.9,2.1-1.3,4.3-1.3,6.7c0,2.4,0.4,4.6,1.2,6.4c0.8,1.8,2,3.3,3.4,4.5c1.5,1.2,3.2,2.1,5.1,2.7
		c2,0.6,4.1,0.9,6.3,0.9c1.6,0,3.2-0.2,4.8-0.7c1.6-0.5,3.1-1.1,4.5-1.9c1.4-0.8,2.8-1.7,4-2.8c0.5-0.4,0.9-0.9,1.4-1.4
		c0,0.1,0,0.2,0.1,0.3c0.4,1.2,0.9,2.2,1.7,3.1c0.7,0.9,1.6,1.6,2.7,2.1c1.1,0.5,2.3,0.8,3.7,0.8c1.9,0,3.7-0.5,5.4-1.4
		c1.7-0.9,3.3-2.1,4.7-3.5c0.4,1.6,1.2,2.9,2.4,4c1.2,1,2.7,1.6,4.5,1.6c1.3,0,2.6-0.2,3.9-0.7c1.3-0.5,2.6-1.2,3.8-2
		s2.3-1.8,3.2-2.9c0.8-0.9,3.4-4.5,4.7-6.5c0.4,1.2,0.8,2.4,1.4,3.6c0.8,1.7,1.8,3.1,3,4.4s2.6,2.2,4.3,3c1.6,0.7,3.6,1.1,5.7,1.1
		c1.5,0,2.9-0.2,4.2-0.7c1.4-0.4,2.6-1.1,3.8-1.9c1.2-0.8,2.3-1.7,3.2-2.8c0.8-0.9,1.6-1.9,2.2-3c0,0.2,0,0.4,0.1,0.5
		c0.3,2.2,0.7,4,1.1,5.4c0.1,0.3,0.2,0.5,0.3,0.8c0.1,0.3,0.3,0.6,0.5,0.8c0.2,0.2,0.5,0.5,0.8,0.6c0.3,0.2,0.7,0.2,1.2,0.2
		c0.5,0,0.9-0.1,1.3-0.3c0.4-0.2,0.7-0.5,0.9-0.9c0.3-0.3,0.5-0.7,0.7-1.1c0.2-0.4,0.4-0.8,0.6-1.2c0.9-1.7,1.7-3.4,2.4-5.1
		c0.8-1.7,1.5-3.4,2.3-5.1c0.8-1.7,1.6-3.3,2.5-4.9c0.9-1.6,1.8-3,2.9-4.4c0.2,1.5,0.4,3.1,0.6,4.8c0.2,1.8,0.5,3.5,0.8,5.3
		c0.3,1.8,0.7,3.5,1.2,5.1c0.5,1.7,1.1,3.1,1.9,4.4c0.8,1.3,1.7,2.3,2.8,3.1c1.1,0.8,2.4,1.2,3.9,1.2c1.4,0,2.6-0.3,3.8-0.9
		s2.3-1.4,3.3-2.3s1.9-2,2.7-3.2c0.3-0.4,0.5-0.9,0.8-1.3c0.8,1.3,1.6,2.5,2.8,3.4c1.5,1.2,3.2,2.1,5.1,2.7c2,0.6,4.1,0.9,6.3,0.9
		c1.6,0,3.2-0.2,4.8-0.7c1.6-0.5,3.1-1.1,4.5-1.9c1.2-0.7,2.3-1.4,3.3-2.3l0.2,0.2c1.6-1.2,3-2.6,4.4-4.2c1.4-1.6,2.6-3.4,3.7-5.3
		c1-1.9,1.9-3.8,2.5-5.9s1-4.1,1-6.1c0.4,0.5,0.9,0.8,1.4,1.1s1.1,0.6,1.7,0.8c0.6,0.2,1.2,0.4,1.9,0.6c0.6,0.2,1.2,0.4,1.8,0.6
		c0.2,0.1,0.3,0.2,0.3,0.4c0,0.2,0,0.4-0.1,0.7c-0.1,0.3-0.1,0.5-0.2,0.7c-0.4,1.3-0.6,2.7-0.8,4.1s-0.3,2.8-0.3,4.1
		c0,1.7,0.2,3.4,0.5,4.9c0.4,1.5,1,2.9,1.8,4c0.8,1.1,1.9,2,3.2,2.7c1.3,0.7,3,1,4.9,1c1,0,2.1-0.2,3.2-0.6c1.1-0.4,2.2-1,3.3-1.7
		c1.1-0.7,2.1-1.7,3-2.7c0.7-0.8,2.5-3.8,3.5-5.6c0.6,1.5,1.3,2.9,2,4.1c1.2,2,2.6,3.6,4.2,4.8c1.6,1.2,3.4,1.8,5.4,1.8
		c2.5,0,4.7-0.6,6.6-1.9c1.7-1.1,3.6-3.4,4.7-5.5c0.4,1.2,1,2.4,1.8,3.3c0.9,1.1,1.9,1.9,3.2,2.5c1.3,0.6,2.8,0.9,4.5,0.9
		c1.1,0,2.2-0.2,3.2-0.5c1-0.3,2-0.7,2.9-1.3c0.9-0.5,1.8-1.2,2.6-1.9c0.8-0.7,1.5-1.5,2.2-2.4c0.3,2,0.7,4,1.1,5.9
		c0.5,2,0.9,3.9,1.4,5.9c0.4,2,0.8,3.9,1.1,5.9c0.3,2,0.5,4,0.5,6c0,1.9-0.2,3.9-0.6,6.1c-0.4,2.2-1,4.2-1.9,6
		c-0.9,1.8-2.1,3.4-3.6,4.6c-1.5,1.2-3.4,1.8-5.6,1.8c-1.6,0-3.1-0.3-4.3-1s-2.3-1.5-3.1-2.6c-0.8-1.1-1.5-2.3-1.9-3.7
		c-0.4-1.4-0.6-2.8-0.6-4.3c0-3.7,0.9-7,2.6-10c1.8-3,4.3-5.4,7.5-7.1l-0.3-0.6c-1.8,0.7-3.5,1.6-5.2,2.7c-1.7,1.2-3.2,2.5-4.5,4
		c-1.3,1.5-2.4,3.2-3.2,5c-0.8,1.8-1.2,3.7-1.2,5.7c0,1.8,0.3,3.6,1,5.2c0.7,1.6,1.7,3.1,2.9,4.3c1.2,1.2,2.6,2.2,4.3,2.9
		c1.6,0.7,3.4,1.1,5.2,1.1c2,0,3.8-0.3,5.5-1c1.7-0.7,3.2-1.6,4.6-2.7c1.4-1.1,2.6-2.5,3.6-4c1.1-1.5,2-3.2,2.7-5
		c0.7-1.8,1.3-3.6,1.6-5.5c0.4-1.9,0.5-3.8,0.5-5.7C382.3,125.8,382,123.1,381.3,120.6z M128.5,99.1c0-1.1,0.1-2.4,0.4-3.8
		c0.3-1.4,0.7-2.8,1.4-4c0.6-1.3,1.5-2.4,2.5-3.2c1-0.9,2.3-1.3,3.7-1.3c1.4,0,2.4,0.4,3,1.3c0.6,0.9,0.9,2,0.9,3.4
		c0,1.4-0.3,2.6-1,3.7c-0.7,1.1-1.5,2-2.5,2.8c-1,0.7-2.2,1.3-3.4,1.7c-1.3,0.4-2.5,0.6-3.7,0.6h-1.2V99.1z M216.8,109.4
		c-1.6,0.9-3.4,1.3-5.3,1.3c-2.1,0-4-0.4-5.5-1.3c-1.6-0.9-2.9-2-4-3.4c-1.1-1.4-2-3-2.7-4.9c-0.7-1.8-1.2-3.7-1.6-5.7
		c-0.4-1.9-0.7-3.9-0.8-5.8c-0.1-1.9-0.2-3.7-0.2-5.3c0-0.7,0-1.3,0-2c0-0.7,0-1.4,0.1-2c3.1-0.1,6.1-0.3,9.2-0.5
		c3.1-0.2,6.1-0.5,9-0.8c1.9-0.2,3.6-0.4,5.4-0.7c-0.3,2.6-0.4,5.2-0.4,7.7c0,2.2,0.1,4.5,0.2,7.1c0.1,2.5,0.3,5.1,0.5,7.5
		c0.2,2.1,0.4,4,0.7,5.8C219.8,107.5,218.4,108.6,216.8,109.4z M265.7,99.1c0-1.1,0.1-2.4,0.4-3.8c0.3-1.4,0.7-2.8,1.4-4
		c0.6-1.3,1.5-2.4,2.5-3.2c1-0.9,2.3-1.3,3.7-1.3c1.4,0,2.4,0.4,3,1.3c0.6,0.9,0.9,2,0.9,3.4c0,1.4-0.3,2.6-1,3.7
		c-0.7,1.1-1.5,2-2.5,2.8c-1,0.7-2.2,1.3-3.4,1.7c-1.3,0.4-2.5,0.6-3.7,0.6h-1.2V99.1z M331.4,87.6c-0.2-1.5-0.3-2.8-0.4-4.1
		c-0.1-1.3-0.1-2.5-0.1-3.5c0-1.1,0-2,0-2.7c0-0.6,0-1.8,0.1-3.5c0.1-1.7,0.3-3.6,0.5-5.8c0.3-2.1,0.6-4.4,1.1-6.7
		c0.4-2.3,1-4.5,1.7-6.4s1.5-3.5,2.4-4.8c0.9-1.2,2.1-1.9,3.3-1.9c0.7,0,1.2,0.2,1.7,0.6c0.5,0.4,0.9,0.9,1.2,1.6
		c0.3,0.6,0.6,1.4,0.7,2.2c0.2,0.8,0.3,1.6,0.4,2.4c0.1,0.8,0.2,1.5,0.2,2.2c0,0.7,0,1.3,0,1.7c0,3.4-0.2,6.6-0.7,9.7
		c-0.4,3.1-1.2,6.1-2.2,8.9c-1,2.8-2.3,5.4-3.8,7.9c-1.6,2.4-3.5,4.6-5.7,6.6C331.8,90.5,331.6,89,331.4,87.6z"/>
	<g>
		<path class="st2" d="M66.1,32.3c37.7,2.6,36.2,32.3,37,39.5c0.1,0,0.1,0,0.2,0c0.2,0,0.4,0.1,0.7,0.1c3.3-13.9-2.8-44.5-36.7-48.1
			c-23.9-2.5-49,16.9-47.5,46.6c0.9,19.2,16.8,32.6,40.7,36.5l0.7-0.7c-9.4-3.1-32.1-10.8-33.2-36.7C27.2,51.7,44.2,30.7,66.1,32.3z
			"/>
		<g>
			<path class="st2" d="M113.7,62.8c3.2-0.1,10.7-0.5,15.7,0.1l-0.2-0.9c-4.5-1.5-12.8-3.2-16.3-3.5C110,58.1,110.2,62.7,113.7,62.8
				z"/>
			<path class="st2" d="M25.9,29.7c-2.2-2.3-7.2-8-11.1-11.1l0.8-0.5c4.2,2.1,11.3,6.8,14,9.1C31.8,29.1,28.4,32.2,25.9,29.7z"/>
			<path class="st2" d="M60.5,15.4C59.8,12.3,57.9,5,57.5,0l-0.9,0.3C56,5,56,13.5,56.4,17C56.6,20.2,61.4,18.7,60.5,15.4z"/>
			<path class="st2" d="M88.7,21c1.5-2.8,4.6-9.7,7.6-13.8l-0.9-0.3c-3.5,3.2-8.9,9.7-10.9,12.6C82.7,22.1,87.3,24.1,88.7,21z"/>
			<path class="st2" d="M107.7,38.2c2.8-1.5,9.3-5.4,14-7.2l-0.6-0.7c-4.7,0.7-12.8,3-16.1,4.4C101.9,36,105,40.3,107.7,38.2z"/>
			<path class="st2" d="M10.4,60.4C7.5,58.5,5,57.6,0,57.5l0.1-1.1c4.6-0.8,7.8-0.5,11.4-0.3C15.1,56.6,12.5,62.1,10.4,60.4z"/>
			<path class="st2" d="M14.8,89.3c-2,0.1-5,0.5-6.4,1.7L8,90.2c1.5-1.7,3.3-3.3,5.7-4.3C15.8,85.2,17.4,89,14.8,89.3z"/>
		</g>
	</g>
</g>
</svg>
